v 0.641584 0.1676 -0.313396
v 0.644444 0.195722 -0.333762
v 0.661158 0.196378 -0.315186
v 0.661964 0.252622 -0.335922
v 0.677508 0.253978 -0.31608
v 0.671322 0.225504 -0.31522
v 0.607746 0.050598 -0.294666
v 0.616306 0.051016 -0.275044
v 0.603316 0.021654 -0.274844
v 0.720422 0.25787 -0.255972
v 0.700912 0.255908 -0.276554
v 0.709892 0.285094 -0.275686
v 0.697956 0.227574 -0.276192
v 0.692006 0.19908 -0.27552
v 0.68534 0.226396 -0.29618
v 0.692006 0.19908 -0.27552
v 0.680468 0.170638 -0.274286
v 0.67811 0.198336 -0.2945
v 0.60106 0.134276 -0.335518
v 0.611176 0.10702 -0.315374
v 0.59712 0.105548 -0.336146
v 0.644444 0.195722 -0.333762
v 0.640894 0.22268 -0.355352
v 0.656512 0.223984 -0.33555
v 0.610774 0.219824 -0.375704
v 0.628624 0.250396 -0.37289
v 0.640894 0.22268 -0.355352
v 0.639908 0.109136 -0.275978
v 0.657702 0.112244 -0.254284
v 0.636706 0.081044 -0.255244
v 0.639908 0.109136 -0.275978
v 0.662714 0.140874 -0.274204
v 0.657702 0.112244 -0.254284
v 0.595852 0.020882 -0.294878
v 0.607746 0.050598 -0.294666
v 0.603316 0.021654 -0.274844
v 0.715224 0.229274 -0.255868
v 0.700912 0.255908 -0.276554
v 0.720422 0.25787 -0.255972
v 0.616306 0.051016 -0.275044
v 0.61084 0.022508 -0.254764
v 0.603316 0.021654 -0.274844
v 0.618382 0.079658 -0.295002
v 0.607746 0.050598 -0.294666
v 0.605974 0.078412 -0.315132
v 0.618382 0.079658 -0.295002
v 0.616306 0.051016 -0.275044
v 0.607746 0.050598 -0.294666
v 0.616958 0.135382 -0.316148
v 0.641584 0.1676 -0.313396
v 0.638748 0.137776 -0.295312
v 0.616958 0.135382 -0.316148
v 0.61351 0.163488 -0.335408
v 0.641584 0.1676 -0.313396
v 0.634434 0.278798 -0.373732
v 0.64856 0.251596 -0.35545
v 0.628624 0.250396 -0.37289
v 0.65368 0.280242 -0.355534
v 0.667314 0.281316 -0.33623
v 0.661964 0.252622 -0.335922
v 0.610774 0.219824 -0.375704
v 0.640894 0.22268 -0.355352
v 0.627446 0.195146 -0.35185
v 0.67811 0.198336 -0.2945
v 0.68534 0.226396 -0.29618
v 0.692006 0.19908 -0.27552
v 0.671322 0.225504 -0.31522
v 0.677508 0.253978 -0.31608
v 0.68534 0.226396 -0.29618
v 0.636706 0.081044 -0.255244
v 0.624258 0.051554 -0.25522
v 0.629982 0.08116 -0.274396
v 0.61351 0.163488 -0.335408
v 0.644444 0.195722 -0.333762
v 0.641584 0.1676 -0.313396
v 0.591166 0.189396 -0.376478
v 0.610774 0.219824 -0.375704
v 0.627446 0.195146 -0.35185
v 0.677508 0.253978 -0.31608
v 0.682716 0.282594 -0.316274
v 0.68879 0.25466 -0.296918
v 0.584008 0.132574 -0.356088
v 0.60106 0.134276 -0.335518
v 0.59712 0.105548 -0.336146
v 0.584008 0.132574 -0.356088
v 0.591928 0.160946 -0.356548
v 0.60106 0.134276 -0.335518
v 0.638748 0.137776 -0.295312
v 0.626578 0.108308 -0.295506
v 0.616958 0.135382 -0.316148
v 0.639908 0.109136 -0.275978
v 0.636706 0.081044 -0.255244
v 0.629982 0.08116 -0.274396
v 0.641584 0.1676 -0.313396
v 0.662888 0.168882 -0.294424
v 0.638748 0.137776 -0.295312
v 0.641584 0.1676 -0.313396
v 0.661158 0.196378 -0.315186
v 0.662888 0.168882 -0.294424
v 0.58487 0.274228 -0.398634
v 0.634434 0.278798 -0.373732
v 0.628624 0.250396 -0.37289
v 0.5917 -0.008818 -0.254918
v 0.603316 0.021654 -0.274844
v 0.61084 0.022508 -0.254764
v 0.58661 -0.00928 -0.27501
v 0.595852 0.020882 -0.294878
v 0.603316 0.021654 -0.274844
v 0.667314 0.281316 -0.33623
v 0.677508 0.253978 -0.31608
v 0.661964 0.252622 -0.335922
v 0.667314 0.281316 -0.33623
v 0.682716 0.282594 -0.316274
v 0.677508 0.253978 -0.31608
v 0.591928 0.160946 -0.356548
v 0.591166 0.189396 -0.376478
v 0.627446 0.195146 -0.35185
v 0.697872 0.172402 -0.254076
v 0.692006 0.19908 -0.27552
v 0.70737 0.200474 -0.255592
v 0.697872 0.172402 -0.254076
v 0.680468 0.170638 -0.274286
v 0.692006 0.19908 -0.27552
v 0.70737 0.200474 -0.255592
v 0.692006 0.19908 -0.27552
v 0.697956 0.227574 -0.276192
v 0.585654 0.21758 -0.395902
v 0.610774 0.219824 -0.375704
v 0.591166 0.189396 -0.376478
v 0.585654 0.21758 -0.395902
v 0.588934 0.246166 -0.397002
v 0.610774 0.219824 -0.375704
v 0.629982 0.08116 -0.274396
v 0.626578 0.108308 -0.295506
v 0.639908 0.109136 -0.275978
v 0.618382 0.079658 -0.295002
v 0.605974 0.078412 -0.315132
v 0.611176 0.10702 -0.315374
v 0.639908 0.109136 -0.275978
v 0.638748 0.137776 -0.295312
v 0.662714 0.140874 -0.274204
v 0.639908 0.109136 -0.275978
v 0.626578 0.108308 -0.295506
v 0.638748 0.137776 -0.295312
v 0.677982 0.14238 -0.254282
v 0.680468 0.170638 -0.274286
v 0.697872 0.172402 -0.254076
v 0.662714 0.140874 -0.274204
v 0.638748 0.137776 -0.295312
v 0.662888 0.168882 -0.294424
v 0.68534 0.226396 -0.29618
v 0.68879 0.25466 -0.296918
v 0.697956 0.227574 -0.276192
v 0.68534 0.226396 -0.29618
v 0.677508 0.253978 -0.31608
v 0.68879 0.25466 -0.296918
v 0.67811 0.198336 -0.2945
v 0.671322 0.225504 -0.31522
v 0.68534 0.226396 -0.29618
v 0.661158 0.196378 -0.315186
v 0.644444 0.195722 -0.333762
v 0.656512 0.223984 -0.33555
v 0.5917 -0.008818 -0.254918
v 0.58661 -0.00928 -0.27501
v 0.603316 0.021654 -0.274844
v 0.695362 0.283632 -0.296104
v 0.709892 0.285094 -0.275686
v 0.700912 0.255908 -0.276554
v 0.605974 0.078412 -0.315132
v 0.59712 0.105548 -0.336146
v 0.611176 0.10702 -0.315374
v 0.588934 0.246166 -0.397002
v 0.628624 0.250396 -0.37289
v 0.610774 0.219824 -0.375704
v 0.588934 0.246166 -0.397002
v 0.58487 0.274228 -0.398634
v 0.628624 0.250396 -0.37289
v 0.64856 0.251596 -0.35545
v 0.640894 0.22268 -0.355352
v 0.628624 0.250396 -0.37289
v 0.64856 0.251596 -0.35545
v 0.656512 0.223984 -0.33555
v 0.640894 0.22268 -0.355352
v 0.59835 0.049472 -0.31495
v 0.607746 0.050598 -0.294666
v 0.595852 0.020882 -0.294878
v 0.59835 0.049472 -0.31495
v 0.605974 0.078412 -0.315132
v 0.607746 0.050598 -0.294666
v 0.591928 0.160946 -0.356548
v 0.61351 0.163488 -0.335408
v 0.60106 0.134276 -0.335518
v 0.591928 0.160946 -0.356548
v 0.627446 0.195146 -0.35185
v 0.61351 0.163488 -0.335408
v 0.627446 0.195146 -0.35185
v 0.644444 0.195722 -0.333762
v 0.61351 0.163488 -0.335408
v 0.627446 0.195146 -0.35185
v 0.640894 0.22268 -0.355352
v 0.644444 0.195722 -0.333762
v 0.594486 0.077118 -0.33579
v 0.605974 0.078412 -0.315132
v 0.59835 0.049472 -0.31495
v 0.594486 0.077118 -0.33579
v 0.59712 0.105548 -0.336146
v 0.605974 0.078412 -0.315132
v 0.634434 0.278798 -0.373732
v 0.65368 0.280242 -0.355534
v 0.64856 0.251596 -0.35545
v 0.60106 0.134276 -0.335518
v 0.616958 0.135382 -0.316148
v 0.611176 0.10702 -0.315374
v 0.60106 0.134276 -0.335518
v 0.61351 0.163488 -0.335408
v 0.616958 0.135382 -0.316148
v 0.662888 0.168882 -0.294424
v 0.680468 0.170638 -0.274286
v 0.662714 0.140874 -0.274204
v 0.662888 0.168882 -0.294424
v 0.67811 0.198336 -0.2945
v 0.680468 0.170638 -0.274286
v 0.662714 0.140874 -0.274204
v 0.677982 0.14238 -0.254282
v 0.657702 0.112244 -0.254284
v 0.662714 0.140874 -0.274204
v 0.680468 0.170638 -0.274286
v 0.677982 0.14238 -0.254282
v 0.661158 0.196378 -0.315186
v 0.67811 0.198336 -0.2945
v 0.662888 0.168882 -0.294424
v 0.661158 0.196378 -0.315186
v 0.671322 0.225504 -0.31522
v 0.67811 0.198336 -0.2945
v 0.64856 0.251596 -0.35545
v 0.661964 0.252622 -0.335922
v 0.656512 0.223984 -0.33555
v 0.64856 0.251596 -0.35545
v 0.65368 0.280242 -0.355534
v 0.661964 0.252622 -0.335922
v 0.656512 0.223984 -0.33555
v 0.671322 0.225504 -0.31522
v 0.661158 0.196378 -0.315186
v 0.656512 0.223984 -0.33555
v 0.661964 0.252622 -0.335922
v 0.671322 0.225504 -0.31522
v 0.611176 0.10702 -0.315374
v 0.626578 0.108308 -0.295506
v 0.618382 0.079658 -0.295002
v 0.611176 0.10702 -0.315374
v 0.616958 0.135382 -0.316148
v 0.626578 0.108308 -0.295506
v 0.618382 0.079658 -0.295002
v 0.629982 0.08116 -0.274396
v 0.616306 0.051016 -0.275044
v 0.618382 0.079658 -0.295002
v 0.626578 0.108308 -0.295506
v 0.629982 0.08116 -0.274396
v 0.624258 0.051554 -0.25522
v 0.616306 0.051016 -0.275044
v 0.629982 0.08116 -0.274396
v 0.624258 0.051554 -0.25522
v 0.61084 0.022508 -0.254764
v 0.616306 0.051016 -0.275044
v 0.715224 0.229274 -0.255868
v 0.697956 0.227574 -0.276192
v 0.700912 0.255908 -0.276554
v 0.715224 0.229274 -0.255868
v 0.70737 0.200474 -0.255592
v 0.697956 0.227574 -0.276192
v 0.700912 0.255908 -0.276554
v 0.68879 0.25466 -0.296918
v 0.695362 0.283632 -0.296104
v 0.700912 0.255908 -0.276554
v 0.697956 0.227574 -0.276192
v 0.68879 0.25466 -0.296918
v 0.695362 0.283632 -0.296104
v 0.68879 0.25466 -0.296918
v 0.682716 0.282594 -0.316274
v 0.595852 0.020882 -0.294878
v 0.588628 0.019976 -0.315038
v 0.59835 0.049472 -0.31495
v 0.59835 0.049472 -0.31495
v 0.590688 0.048676 -0.334926
v 0.594486 0.077118 -0.33579
v 0.59835 0.049472 -0.31495
v 0.588628 0.019976 -0.315038
v 0.590688 0.048676 -0.334926

vn 0.611102 -0.462263 -0.642548
vn 0.665231 -0.444343 -0.600023
vn 0.713002 -0.368799 -0.596335
vn 0.802032 -0.161024 -0.575166
vn 0.813365 -0.160585 -0.559151
vn 0.787404 -0.220556 -0.57563
vn 0.86431 -0.324049 -0.384656
vn 0.856485 -0.373499 -0.356275
vn 0.854872 -0.423485 -0.299756
vn 0.708301 -0.176353 -0.683527
vn 0.794873 -0.153194 -0.587119
vn 0.739916 -0.265119 -0.618253
vn 0.806524 -0.146214 -0.572836
vn 0.779789 -0.259362 -0.56979
vn 0.818626 -0.180875 -0.545101
vn 0.779789 -0.259362 -0.56979
vn 0.72074 -0.391048 -0.572376
vn 0.761182 -0.303772 -0.572996
vn 0.761022 -0.200566 -0.616944
vn 0.804221 -0.166561 -0.570514
vn 0.829434 -0.0879618 -0.551635
vn 0.665231 -0.444343 -0.600023
vn 0.668672 -0.292938 -0.683421
vn 0.776553 -0.251206 -0.577807
vn 0.569314 -0.283569 -0.771667
vn 0.568617 -0.165936 -0.805692
vn 0.668672 -0.292938 -0.683421
vn 0.755373 -0.392545 -0.524709
vn 0.72001 -0.494333 -0.487052
vn 0.827867 -0.420278 -0.371487
vn 0.755373 -0.392545 -0.524709
vn 0.684595 -0.452078 -0.5718
vn 0.72001 -0.494333 -0.487052
vn 0.877109 -0.373148 -0.302392
vn 0.86431 -0.324049 -0.384656
vn 0.854872 -0.423485 -0.299756
vn 0.734546 -0.167443 -0.657576
vn 0.794873 -0.153194 -0.587119
vn 0.708301 -0.176353 -0.683527
vn 0.856485 -0.373499 -0.356275
vn 0.843933 -0.443096 -0.302397
vn 0.854872 -0.423485 -0.299756
vn 0.834106 -0.27514 -0.478086
vn 0.86431 -0.324049 -0.384656
vn 0.852178 -0.196845 -0.484815
vn 0.834106 -0.27514 -0.478086
vn 0.856485 -0.373499 -0.356275
vn 0.86431 -0.324049 -0.384656
vn 0.71102 -0.294817 -0.638384
vn 0.611102 -0.462263 -0.642548
vn 0.659909 -0.39734 -0.637685
vn 0.71102 -0.294817 -0.638384
vn 0.641122 -0.444431 -0.625654
vn 0.611102 -0.462263 -0.642548
vn 0.577731 -0.0895508 -0.8113
vn 0.741562 -0.16291 -0.650804
vn 0.568617 -0.165936 -0.805692
vn 0.755349 -0.10371 -0.647064
vn 0.7898 -0.150615 -0.594584
vn 0.802032 -0.161024 -0.575166
vn 0.569314 -0.283569 -0.771667
vn 0.668672 -0.292938 -0.683421
vn 0.603495 -0.454909 -0.654868
vn 0.761182 -0.303772 -0.572996
vn 0.818626 -0.180875 -0.545101
vn 0.779789 -0.259362 -0.56979
vn 0.787404 -0.220556 -0.57563
vn 0.813365 -0.160585 -0.559151
vn 0.818626 -0.180875 -0.545101
vn 0.827867 -0.420278 -0.371487
vn 0.870908 -0.386426 -0.303635
vn 0.856579 -0.336625 -0.391097
vn 0.641122 -0.444431 -0.625654
vn 0.665231 -0.444343 -0.600023
vn 0.611102 -0.462263 -0.642548
vn 0.670539 -0.36391 -0.646489
vn 0.569314 -0.283569 -0.771667
vn 0.603495 -0.454909 -0.654868
vn 0.813365 -0.160585 -0.559151
vn 0.816444 -0.167054 -0.552731
vn 0.8518 -0.141246 -0.504466
vn 0.79983 -0.126692 -0.586703
vn 0.761022 -0.200566 -0.616944
vn 0.829434 -0.0879618 -0.551635
vn 0.79983 -0.126692 -0.586703
vn 0.711734 -0.351863 -0.60797
vn 0.761022 -0.200566 -0.616944
vn 0.659909 -0.39734 -0.637685
vn 0.780122 -0.265037 -0.566714
vn 0.71102 -0.294817 -0.638384
vn 0.755373 -0.392545 -0.524709
vn 0.827867 -0.420278 -0.371487
vn 0.856579 -0.336625 -0.391097
vn 0.611102 -0.462263 -0.642548
vn 0.665524 -0.424303 -0.614039
vn 0.659909 -0.39734 -0.637685
vn 0.611102 -0.462263 -0.642548
vn 0.713002 -0.368799 -0.596335
vn 0.665524 -0.424303 -0.614039
vn 0.56119 0.0581359 -0.825643
vn 0.577731 -0.0895508 -0.8113
vn 0.568617 -0.165936 -0.805692
vn 0.806217 -0.536513 -0.249335
vn 0.854872 -0.423485 -0.299756
vn 0.843933 -0.443096 -0.302397
vn 0.838844 -0.506514 -0.199461
vn 0.877109 -0.373148 -0.302392
vn 0.854872 -0.423485 -0.299756
vn 0.7898 -0.150615 -0.594584
vn 0.813365 -0.160585 -0.559151
vn 0.802032 -0.161024 -0.575166
vn 0.7898 -0.150615 -0.594584
vn 0.816444 -0.167054 -0.552731
vn 0.813365 -0.160585 -0.559151
vn 0.711734 -0.351863 -0.60797
vn 0.670539 -0.36391 -0.646489
vn 0.603495 -0.454909 -0.654868
vn 0.746652 -0.392174 -0.537317
vn 0.779789 -0.259362 -0.56979
vn 0.754079 -0.260472 -0.602925
vn 0.746652 -0.392174 -0.537317
vn 0.72074 -0.391048 -0.572376
vn 0.779789 -0.259362 -0.56979
vn 0.754079 -0.260472 -0.602925
vn 0.779789 -0.259362 -0.56979
vn 0.806524 -0.146214 -0.572836
vn 0.713101 -0.189009 -0.675102
vn 0.569314 -0.283569 -0.771667
vn 0.670539 -0.36391 -0.646489
vn 0.713101 -0.189009 -0.675102
vn 0.632681 -0.0494906 -0.772829
vn 0.569314 -0.283569 -0.771667
vn 0.856579 -0.336625 -0.391097
vn 0.780122 -0.265037 -0.566714
vn 0.755373 -0.392545 -0.524709
vn 0.834106 -0.27514 -0.478086
vn 0.852178 -0.196845 -0.484815
vn 0.804221 -0.166561 -0.570514
vn 0.755373 -0.392545 -0.524709
vn 0.659909 -0.39734 -0.637685
vn 0.684595 -0.452078 -0.5718
vn 0.755373 -0.392545 -0.524709
vn 0.780122 -0.265037 -0.566714
vn 0.659909 -0.39734 -0.637685
vn 0.728465 -0.470989 -0.497501
vn 0.72074 -0.391048 -0.572376
vn 0.746652 -0.392174 -0.537317
vn 0.684595 -0.452078 -0.5718
vn 0.659909 -0.39734 -0.637685
vn 0.665524 -0.424303 -0.614039
vn 0.818626 -0.180875 -0.545101
vn 0.8518 -0.141246 -0.504466
vn 0.806524 -0.146214 -0.572836
vn 0.818626 -0.180875 -0.545101
vn 0.813365 -0.160585 -0.559151
vn 0.8518 -0.141246 -0.504466
vn 0.761182 -0.303772 -0.572996
vn 0.787404 -0.220556 -0.57563
vn 0.818626 -0.180875 -0.545101
vn 0.713002 -0.368799 -0.596335
vn 0.665231 -0.444343 -0.600023
vn 0.776553 -0.251206 -0.577807
vn 0.806217 -0.536513 -0.249335
vn 0.838844 -0.506514 -0.199461
vn 0.854872 -0.423485 -0.299756
vn 0.816144 -0.212191 -0.53748
vn 0.739916 -0.265119 -0.618253
vn 0.794873 -0.153194 -0.587119
vn 0.852178 -0.196845 -0.484815
vn 0.829434 -0.0879618 -0.551635
vn 0.804221 -0.166561 -0.570514
vn 0.632681 -0.0494906 -0.772829
vn 0.568617 -0.165936 -0.805692
vn 0.569314 -0.283569 -0.771667
vn 0.632681 -0.0494906 -0.772829
vn 0.56119 0.0581359 -0.825643
vn 0.568617 -0.165936 -0.805692
vn 0.741562 -0.16291 -0.650804
vn 0.668672 -0.292938 -0.683421
vn 0.568617 -0.165936 -0.805692
vn 0.741562 -0.16291 -0.650804
vn 0.776553 -0.251206 -0.577807
vn 0.668672 -0.292938 -0.683421
vn 0.891505 -0.258406 -0.372083
vn 0.86431 -0.324049 -0.384656
vn 0.877109 -0.373148 -0.302392
vn 0.891505 -0.258406 -0.372083
vn 0.852178 -0.196845 -0.484815
vn 0.86431 -0.324049 -0.384656
vn 0.711734 -0.351863 -0.60797
vn 0.641122 -0.444431 -0.625654
vn 0.761022 -0.200566 -0.616944
vn 0.711734 -0.351863 -0.60797
vn 0.603495 -0.454909 -0.654868
vn 0.641122 -0.444431 -0.625654
vn 0.603495 -0.454909 -0.654868
vn 0.665231 -0.444343 -0.600023
vn 0.641122 -0.444431 -0.625654
vn 0.603495 -0.454909 -0.654868
vn 0.668672 -0.292938 -0.683421
vn 0.665231 -0.444343 -0.600023
vn 0.891783 -0.105912 -0.439894
vn 0.852178 -0.196845 -0.484815
vn 0.891505 -0.258406 -0.372083
vn 0.891783 -0.105912 -0.439894
vn 0.829434 -0.0879618 -0.551635
vn 0.852178 -0.196845 -0.484815
vn 0.577731 -0.0895508 -0.8113
vn 0.755349 -0.10371 -0.647064
vn 0.741562 -0.16291 -0.650804
vn 0.761022 -0.200566 -0.616944
vn 0.71102 -0.294817 -0.638384
vn 0.804221 -0.166561 -0.570514
vn 0.761022 -0.200566 -0.616944
vn 0.641122 -0.444431 -0.625654
vn 0.71102 -0.294817 -0.638384
vn 0.665524 -0.424303 -0.614039
vn 0.72074 -0.391048 -0.572376
vn 0.684595 -0.452078 -0.5718
vn 0.665524 -0.424303 -0.614039
vn 0.761182 -0.303772 -0.572996
vn 0.72074 -0.391048 -0.572376
vn 0.684595 -0.452078 -0.5718
vn 0.728465 -0.470989 -0.497501
vn 0.72001 -0.494333 -0.487052
vn 0.684595 -0.452078 -0.5718
vn 0.72074 -0.391048 -0.572376
vn 0.728465 -0.470989 -0.497501
vn 0.713002 -0.368799 -0.596335
vn 0.761182 -0.303772 -0.572996
vn 0.665524 -0.424303 -0.614039
vn 0.713002 -0.368799 -0.596335
vn 0.787404 -0.220556 -0.57563
vn 0.761182 -0.303772 -0.572996
vn 0.741562 -0.16291 -0.650804
vn 0.802032 -0.161024 -0.575166
vn 0.776553 -0.251206 -0.577807
vn 0.741562 -0.16291 -0.650804
vn 0.755349 -0.10371 -0.647064
vn 0.802032 -0.161024 -0.575166
vn 0.776553 -0.251206 -0.577807
vn 0.787404 -0.220556 -0.57563
vn 0.713002 -0.368799 -0.596335
vn 0.776553 -0.251206 -0.577807
vn 0.802032 -0.161024 -0.575166
vn 0.787404 -0.220556 -0.57563
vn 0.804221 -0.166561 -0.570514
vn 0.780122 -0.265037 -0.566714
vn 0.834106 -0.27514 -0.478086
vn 0.804221 -0.166561 -0.570514
vn 0.71102 -0.294817 -0.638384
vn 0.780122 -0.265037 -0.566714
vn 0.834106 -0.27514 -0.478086
vn 0.856579 -0.336625 -0.391097
vn 0.856485 -0.373499 -0.356275
vn 0.834106 -0.27514 -0.478086
vn 0.780122 -0.265037 -0.566714
vn 0.856579 -0.336625 -0.391097
vn 0.870908 -0.386426 -0.303635
vn 0.856485 -0.373499 -0.356275
vn 0.856579 -0.336625 -0.391097
vn 0.870908 -0.386426 -0.303635
vn 0.843933 -0.443096 -0.302397
vn 0.856485 -0.373499 -0.356275
vn 0.734546 -0.167443 -0.657576
vn 0.806524 -0.146214 -0.572836
vn 0.794873 -0.153194 -0.587119
vn 0.734546 -0.167443 -0.657576
vn 0.754079 -0.260472 -0.602925
vn 0.806524 -0.146214 -0.572836
vn 0.794873 -0.153194 -0.587119
vn 0.8518 -0.141246 -0.504466
vn 0.816144 -0.212191 -0.53748
vn 0.794873 -0.153194 -0.587119
vn 0.806524 -0.146214 -0.572836
vn 0.8518 -0.141246 -0.504466
vn 0.816144 -0.212191 -0.53748
vn 0.8518 -0.141246 -0.504466
vn 0.816444 -0.167054 -0.552731
vn 0.877109 -0.373148 -0.302392
vn 0.884757 -0.342652 -0.315903
vn 0.891505 -0.258406 -0.372083
vn 0.891505 -0.258406 -0.372083
vn 0.903953 -0.216025 -0.369055
vn 0.891783 -0.105912 -0.439894
vn 0.891505 -0.258406 -0.372083
vn 0.884757 -0.342652 -0.315903
vn 0.903953 -0.216025 -0.369055

f 1//1 2//2 3//3
f 4//4 5//5 6//6
f 7//7 8//8 9//9
f 10//10 11//11 12//12
f 13//13 14//14 15//15
f 16//16 17//17 18//18
f 19//19 20//20 21//21
f 22//22 23//23 24//24
f 25//25 26//26 27//27
f 28//28 29//29 30//30
f 31//31 32//32 33//33
f 34//34 35//35 36//36
f 37//37 38//38 39//39
f 40//40 41//41 42//42
f 43//43 44//44 45//45
f 46//46 47//47 48//48
f 49//49 50//50 51//51
f 52//52 53//53 54//54
f 55//55 56//56 57//57
f 58//58 59//59 60//60
f 61//61 62//62 63//63
f 64//64 65//65 66//66
f 67//67 68//68 69//69
f 70//70 71//71 72//72
f 73//73 74//74 75//75
f 76//76 77//77 78//78
f 79//79 80//80 81//81
f 82//82 83//83 84//84
f 85//85 86//86 87//87
f 88//88 89//89 90//90
f 91//91 92//92 93//93
f 94//94 95//95 96//96
f 97//97 98//98 99//99
f 100//100 101//101 102//102
f 103//103 104//104 105//105
f 106//106 107//107 108//108
f 109//109 110//110 111//111
f 112//112 113//113 114//114
f 115//115 116//116 117//117
f 118//118 119//119 120//120
f 121//121 122//122 123//123
f 124//124 125//125 126//126
f 127//127 128//128 129//129
f 130//130 131//131 132//132
f 133//133 134//134 135//135
f 136//136 137//137 138//138
f 139//139 140//140 141//141
f 142//142 143//143 144//144
f 145//145 146//146 147//147
f 148//148 149//149 150//150
f 151//151 152//152 153//153
f 154//154 155//155 156//156
f 157//157 158//158 159//159
f 160//160 161//161 162//162
f 163//163 164//164 165//165
f 166//166 167//167 168//168
f 169//169 170//170 171//171
f 172//172 173//173 174//174
f 175//175 176//176 177//177
f 178//178 179//179 180//180
f 181//181 182//182 183//183
f 184//184 185//185 186//186
f 187//187 188//188 189//189
f 190//190 191//191 192//192
f 193//193 194//194 195//195
f 196//196 197//197 198//198
f 199//199 200//200 201//201
f 202//202 203//203 204//204
f 205//205 206//206 207//207
f 208//208 209//209 210//210
f 211//211 212//212 213//213
f 214//214 215//215 216//216
f 217//217 218//218 219//219
f 220//220 221//221 222//222
f 223//223 224//224 225//225
f 226//226 227//227 228//228
f 229//229 230//230 231//231
f 232//232 233//233 234//234
f 235//235 236//236 237//237
f 238//238 239//239 240//240
f 241//241 242//242 243//243
f 244//244 245//245 246//246
f 247//247 248//248 249//249
f 250//250 251//251 252//252
f 253//253 254//254 255//255
f 256//256 257//257 258//258
f 259//259 260//260 261//261
f 262//262 263//263 264//264
f 265//265 266//266 267//267
f 268//268 269//269 270//270
f 271//271 272//272 273//273
f 274//274 275//275 276//276
f 277//277 278//278 279//279
f 280//280 281//281 282//282
f 283//283 284//284 285//285
f 286//286 287//287 288//288

