v -1.156318 0.273206 0.619796
v -1.142818 0.285168 0.647436
v -1.16259 0.28613 0.642448
v -1.06269 0.283146 0.666122
v -1.048396 0.297316 0.692174
v -1.067784 0.29842 0.687042
v -1.187186 0.302886 0.657864
v -1.171962 0.317948 0.683126
v -1.19179 0.318788 0.678174
v -1.28153 0.316126 0.62645
v -1.279426 0.302318 0.603046
v -1.262544 0.313666 0.632548
v -1.294072 0.306088 0.597474
v -1.269772 0.28892 0.582196
v -1.279426 0.302318 0.603046
v -1.00926 0.255586 0.677394
v -1.007252 0.285312 0.699348
v -1.02876 0.286428 0.687208
v -1.238776 0.295544 0.618184
v -1.219688 0.293276 0.62426
v -1.225202 0.307762 0.645646
v -1.194406 0.277832 0.607668
v -1.188896 0.26358 0.586104
v -1.173236 0.275374 0.614822
v -1.04924 0.284626 0.672702
v -1.047718 0.252334 0.62811
v -1.02833 0.254834 0.654602
v -1.06269 0.283146 0.666122
v -1.08246 0.28392 0.661254
v -1.077464 0.26905 0.640122
v -1.05232 0.314326 0.711694
v -1.048396 0.297316 0.692174
v -1.028686 0.295616 0.69777
v -1.142818 0.285168 0.647436
v -1.14815 0.299982 0.668612
v -1.16259 0.28613 0.642448
v -1.087684 0.29868 0.68258
v -1.093104 0.313702 0.70363
v -1.108292 0.298558 0.67835
v -1.262544 0.313666 0.632548
v -1.257658 0.298206 0.611982
v -1.244188 0.310038 0.63965
v -1.23439 0.33975 0.68611
v -1.253568 0.341786 0.680308
v -1.250636 0.325748 0.659168
v -1.257182 0.359682 0.699114
v -1.276272 0.361904 0.693126
v -1.253568 0.341786 0.680308
v -1.16259 0.28613 0.642448
v -1.173236 0.275374 0.614822
v -1.156318 0.273206 0.619796
v -1.187186 0.302886 0.657864
v -1.206186 0.305188 0.651868
v -1.2007 0.290812 0.63035
v -1.286186 0.331968 0.646776
v -1.28153 0.316126 0.62645
v -1.267816 0.32847 0.653762
v -1.232516 0.282508 0.59558
v -1.213564 0.279956 0.601764
v -1.219688 0.293276 0.62426
v -1.250498 0.284994 0.5899
v -1.26414 0.2748 0.560552
v -1.24518 0.27225 0.566672
v -1.072466 0.314194 0.707672
v -1.093104 0.313702 0.70363
v -1.087684 0.29868 0.68258
v -1.21087 0.321068 0.672134
v -1.19179 0.318788 0.678174
v -1.215308 0.337572 0.692032
v -1.206186 0.305188 0.651868
v -1.187186 0.302886 0.657864
v -1.19179 0.318788 0.678174
v -1.02876 0.286428 0.687208
v -1.04924 0.284626 0.672702
v -1.02833 0.254834 0.654602
v -1.02876 0.286428 0.687208
v -1.048396 0.297316 0.692174
v -1.04924 0.284626 0.672702
v -1.047718 0.252334 0.62811
v -1.06269 0.283146 0.666122
v -1.077464 0.26905 0.640122
v -1.215308 0.337572 0.692032
v -1.195562 0.336498 0.697196
v -1.218238 0.356686 0.710006
v -1.00926 0.255586 0.677394
v -1.02876 0.286428 0.687208
v -1.02833 0.254834 0.654602
v -1.156548 0.333636 0.708002
v -1.171962 0.317948 0.683126
v -1.152108 0.317094 0.688126
v -1.156548 0.333636 0.708002
v -1.17633 0.334618 0.702954
v -1.171962 0.317948 0.683126
v -1.103002 0.283758 0.657136
v -1.116558 0.271584 0.629578
v -1.097412 0.269476 0.635446
v -1.103002 0.283758 0.657136
v -1.108292 0.298558 0.67835
v -1.122912 0.284332 0.652378
v -1.2007 0.290812 0.63035
v -1.219688 0.293276 0.62426
v -1.213564 0.279956 0.601764
v -1.2007 0.290812 0.63035
v -1.206186 0.305188 0.651868
v -1.219688 0.293276 0.62426
v -1.269772 0.28892 0.582196
v -1.26414 0.2748 0.560552
v -1.250498 0.284994 0.5899
v -1.206186 0.305188 0.651868
v -1.225202 0.307762 0.645646
v -1.219688 0.293276 0.62426
v -1.229834 0.323624 0.665996
v -1.23439 0.33975 0.68611
v -1.250636 0.325748 0.659168
v -1.23439 0.33975 0.68611
v -1.257182 0.359682 0.699114
v -1.253568 0.341786 0.680308
v -1.215308 0.337572 0.692032
v -1.218238 0.356686 0.710006
v -1.238018 0.357784 0.704714
v -1.238776 0.295544 0.618184
v -1.232516 0.282508 0.59558
v -1.219688 0.293276 0.62426
v -1.279426 0.302318 0.603046
v -1.269772 0.28892 0.582196
v -1.250498 0.284994 0.5899
v -1.14815 0.299982 0.668612
v -1.171962 0.317948 0.683126
v -1.167288 0.3019 0.662892
v -1.14815 0.299982 0.668612
v -1.152108 0.317094 0.688126
v -1.171962 0.317948 0.683126
v -1.19179 0.318788 0.678174
v -1.195562 0.336498 0.697196
v -1.215308 0.337572 0.692032
v -1.19179 0.318788 0.678174
v -1.171962 0.317948 0.683126
v -1.195562 0.336498 0.697196
v -1.267816 0.32847 0.653762
v -1.272572 0.344202 0.674174
v -1.290864 0.347984 0.66708
v -1.267816 0.32847 0.653762
v -1.250636 0.325748 0.659168
v -1.253568 0.341786 0.680308
v -1.226178 0.269826 0.57278
v -1.213564 0.279956 0.601764
v -1.232516 0.282508 0.59558
v -1.207212 0.26729 0.578964
v -1.188896 0.26358 0.586104
v -1.194406 0.277832 0.607668
v -1.286186 0.331968 0.646776
v -1.267816 0.32847 0.653762
v -1.290864 0.347984 0.66708
v -1.103002 0.283758 0.657136
v -1.087684 0.29868 0.68258
v -1.108292 0.298558 0.67835
v -1.08246 0.28392 0.661254
v -1.06269 0.283146 0.666122
v -1.067784 0.29842 0.687042
v -1.072466 0.314194 0.707672
v -1.048396 0.297316 0.692174
v -1.05232 0.314326 0.711694
v -1.072466 0.314194 0.707672
v -1.067784 0.29842 0.687042
v -1.048396 0.297316 0.692174
v -1.116558 0.271584 0.629578
v -1.122912 0.284332 0.652378
v -1.136482 0.27224 0.624724
v -1.116558 0.271584 0.629578
v -1.103002 0.283758 0.657136
v -1.122912 0.284332 0.652378
v -1.112944 0.314716 0.698554
v -1.132872 0.31547 0.693678
v -1.127534 0.30031 0.672716
v -1.127534 0.30031 0.672716
v -1.14815 0.299982 0.668612
v -1.142818 0.285168 0.647436
v -1.127534 0.30031 0.672716
v -1.132872 0.31547 0.693678
v -1.14815 0.299982 0.668612
v -1.173236 0.275374 0.614822
v -1.181698 0.288274 0.636504
v -1.194406 0.277832 0.607668
v -1.173236 0.275374 0.614822
v -1.16259 0.28613 0.642448
v -1.181698 0.288274 0.636504
v -1.16259 0.28613 0.642448
v -1.167288 0.3019 0.662892
v -1.181698 0.288274 0.636504
v -1.16259 0.28613 0.642448
v -1.14815 0.299982 0.668612
v -1.167288 0.3019 0.662892
v -1.250636 0.325748 0.659168
v -1.244188 0.310038 0.63965
v -1.229834 0.323624 0.665996
v -1.250636 0.325748 0.659168
v -1.262544 0.313666 0.632548
v -1.244188 0.310038 0.63965
v -1.06269 0.283146 0.666122
v -1.04924 0.284626 0.672702
v -1.048396 0.297316 0.692174
v -1.06269 0.283146 0.666122
v -1.047718 0.252334 0.62811
v -1.04924 0.284626 0.672702
v -1.267816 0.32847 0.653762
v -1.262544 0.313666 0.632548
v -1.250636 0.325748 0.659168
v -1.267816 0.32847 0.653762
v -1.28153 0.316126 0.62645
v -1.262544 0.313666 0.632548
v -1.257658 0.298206 0.611982
v -1.279426 0.302318 0.603046
v -1.250498 0.284994 0.5899
v -1.257658 0.298206 0.611982
v -1.262544 0.313666 0.632548
v -1.279426 0.302318 0.603046
v -1.02876 0.286428 0.687208
v -1.028686 0.295616 0.69777
v -1.048396 0.297316 0.692174
v -1.02876 0.286428 0.687208
v -1.007252 0.285312 0.699348
v -1.028686 0.295616 0.69777
v -1.206186 0.305188 0.651868
v -1.21087 0.321068 0.672134
v -1.225202 0.307762 0.645646
v -1.206186 0.305188 0.651868
v -1.19179 0.318788 0.678174
v -1.21087 0.321068 0.672134
v -1.257182 0.359682 0.699114
v -1.23439 0.33975 0.68611
v -1.238018 0.357784 0.704714
v -1.23439 0.33975 0.68611
v -1.215308 0.337572 0.692032
v -1.238018 0.357784 0.704714
v -1.23439 0.33975 0.68611
v -1.229834 0.323624 0.665996
v -1.215308 0.337572 0.692032
v -1.250498 0.284994 0.5899
v -1.232516 0.282508 0.59558
v -1.238776 0.295544 0.618184
v -1.250498 0.284994 0.5899
v -1.24518 0.27225 0.566672
v -1.232516 0.282508 0.59558
v -1.077464 0.26905 0.640122
v -1.08246 0.28392 0.661254
v -1.097412 0.269476 0.635446
v -1.226178 0.269826 0.57278
v -1.232516 0.282508 0.59558
v -1.24518 0.27225 0.566672
v -1.156318 0.273206 0.619796
v -1.136482 0.27224 0.624724
v -1.142818 0.285168 0.647436
v -1.142818 0.285168 0.647436
v -1.122912 0.284332 0.652378
v -1.127534 0.30031 0.672716
v -1.142818 0.285168 0.647436
v -1.136482 0.27224 0.624724
v -1.122912 0.284332 0.652378
v -1.127534 0.30031 0.672716
v -1.108292 0.298558 0.67835
v -1.112944 0.314716 0.698554
v -1.127534 0.30031 0.672716
v -1.122912 0.284332 0.652378
v -1.108292 0.298558 0.67835
v -1.112944 0.314716 0.698554
v -1.108292 0.298558 0.67835
v -1.093104 0.313702 0.70363
v -1.226178 0.269826 0.57278
v -1.207212 0.26729 0.578964
v -1.213564 0.279956 0.601764
v -1.213564 0.279956 0.601764
v -1.194406 0.277832 0.607668
v -1.2007 0.290812 0.63035
v -1.213564 0.279956 0.601764
v -1.207212 0.26729 0.578964
v -1.194406 0.277832 0.607668
v -1.103002 0.283758 0.657136
v -1.08246 0.28392 0.661254
v -1.087684 0.29868 0.68258
v -1.103002 0.283758 0.657136
v -1.097412 0.269476 0.635446
v -1.08246 0.28392 0.661254
v -1.087684 0.29868 0.68258
v -1.067784 0.29842 0.687042
v -1.072466 0.314194 0.707672
v -1.087684 0.29868 0.68258
v -1.08246 0.28392 0.661254
v -1.067784 0.29842 0.687042
v -1.2007 0.290812 0.63035
v -1.181698 0.288274 0.636504
v -1.187186 0.302886 0.657864
v -1.2007 0.290812 0.63035
v -1.194406 0.277832 0.607668
v -1.181698 0.288274 0.636504
v -1.195562 0.336498 0.697196
v -1.171962 0.317948 0.683126
v -1.17633 0.334618 0.702954
v -1.187186 0.302886 0.657864
v -1.167288 0.3019 0.662892
v -1.171962 0.317948 0.683126
v -1.187186 0.302886 0.657864
v -1.181698 0.288274 0.636504
v -1.167288 0.3019 0.662892
v -1.257658 0.298206 0.611982
v -1.238776 0.295544 0.618184
v -1.244188 0.310038 0.63965
v -1.257658 0.298206 0.611982
v -1.250498 0.284994 0.5899
v -1.238776 0.295544 0.618184
v -1.244188 0.310038 0.63965
v -1.225202 0.307762 0.645646
v -1.229834 0.323624 0.665996
v -1.244188 0.310038 0.63965
v -1.238776 0.295544 0.618184
v -1.225202 0.307762 0.645646
v -1.229834 0.323624 0.665996
v -1.21087 0.321068 0.672134
v -1.215308 0.337572 0.692032
v -1.229834 0.323624 0.665996
v -1.225202 0.307762 0.645646
v -1.21087 0.321068 0.672134
v -1.287934 0.292886 0.574924
v -1.269772 0.28892 0.582196
v -1.294072 0.306088 0.597474
v -1.287934 0.292886 0.574924
v -1.26414 0.2748 0.560552
v -1.269772 0.28892 0.582196
v -1.272572 0.344202 0.674174
v -1.253568 0.341786 0.680308
v -1.276272 0.361904 0.693126
v -1.272572 0.344202 0.674174
v -1.267816 0.32847 0.653762
v -1.253568 0.341786 0.680308
v -1.132872 0.31547 0.693678
v -1.152108 0.317094 0.688126
v -1.14815 0.299982 0.668612
v -1.132872 0.31547 0.693678
v -1.156548 0.333636 0.708002
v -1.152108 0.317094 0.688126

vn -0.189656 -0.870772 0.453638
vn -0.156617 -0.848438 0.505592
vn -0.21516 -0.840819 0.496718
vn -0.184197 -0.810642 0.555815
vn -0.222109 -0.781708 0.582752
vn -0.168826 -0.81038 0.561055
vn -0.223069 -0.811725 0.539762
vn -0.200663 -0.771879 0.603272
vn -0.222665 -0.769761 0.598237
vn -0.315353 -0.811609 0.491775
vn -0.345013 -0.836844 0.425038
vn -0.313539 -0.805535 0.502799
vn -0.359364 -0.834224 0.418244
vn -0.346864 -0.838353 0.420535
vn -0.345013 -0.836844 0.425038
vn -0.668713 -0.390529 0.6327
vn -0.472928 -0.528592 0.704933
vn -0.390997 -0.670616 0.630393
vn -0.258902 -0.848 0.462456
vn -0.256647 -0.846903 0.465712
vn -0.270881 -0.808487 0.522467
vn -0.254086 -0.858402 0.44563
vn -0.281493 -0.861744 0.422088
vn -0.247097 -0.85502 0.455944
vn -0.291315 -0.77018 0.567414
vn -0.526661 -0.66876 0.524775
vn -0.655084 -0.516323 0.551612
vn -0.184197 -0.810642 0.555815
vn -0.135408 -0.828069 0.544028
vn -0.186684 -0.838223 0.512378
vn -0.105946 -0.732648 0.672311
vn -0.222109 -0.781708 0.582752
vn -0.275557 -0.687414 0.67196
vn -0.156617 -0.848438 0.505592
vn -0.174755 -0.802138 0.570995
vn -0.21516 -0.840819 0.496718
vn -0.11688 -0.822838 0.556127
vn -0.138907 -0.780853 0.609076
vn -0.173733 -0.807897 0.563133
vn -0.313539 -0.805535 0.502799
vn -0.315054 -0.829637 0.460916
vn -0.298465 -0.802592 0.516493
vn -0.26758 -0.751482 0.603055
vn -0.274054 -0.756422 0.593903
vn -0.284575 -0.790572 0.54223
vn -0.274244 -0.699791 0.659608
vn -0.30238 -0.703324 0.643351
vn -0.274054 -0.756422 0.593903
vn -0.21516 -0.840819 0.496718
vn -0.247097 -0.85502 0.455944
vn -0.189656 -0.870772 0.453638
vn -0.223069 -0.811725 0.539762
vn -0.27051 -0.809209 0.521542
vn -0.256864 -0.848902 0.461937
vn -0.325559 -0.783746 0.528918
vn -0.315353 -0.811609 0.491775
vn -0.311214 -0.793549 0.522901
vn -0.252621 -0.869122 0.425217
vn -0.244905 -0.869575 0.42879
vn -0.256647 -0.846903 0.465712
vn -0.286971 -0.859927 0.422105
vn -0.319902 -0.851624 0.41521
vn -0.252373 -0.870502 0.422533
vn -0.128925 -0.781613 0.610295
vn -0.138907 -0.780853 0.609076
vn -0.11688 -0.822838 0.556127
vn -0.279397 -0.777659 0.56319
vn -0.222665 -0.769761 0.598237
vn -0.247217 -0.730584 0.636499
vn -0.27051 -0.809209 0.521542
vn -0.223069 -0.811725 0.539762
vn -0.222665 -0.769761 0.598237
vn -0.390997 -0.670616 0.630393
vn -0.291315 -0.77018 0.567414
vn -0.655084 -0.516323 0.551612
vn -0.390997 -0.670616 0.630393
vn -0.222109 -0.781708 0.582752
vn -0.291315 -0.77018 0.567414
vn -0.526661 -0.66876 0.524775
vn -0.184197 -0.810642 0.555815
vn -0.186684 -0.838223 0.512378
vn -0.247217 -0.730584 0.636499
vn -0.23518 -0.726648 0.645502
vn -0.24996 -0.676837 0.692396
vn -0.668713 -0.390529 0.6327
vn -0.390997 -0.670616 0.630393
vn -0.655084 -0.516323 0.551612
vn -0.207313 -0.74363 0.635638
vn -0.200663 -0.771879 0.603272
vn -0.212993 -0.764811 0.608028
vn -0.207313 -0.74363 0.635638
vn -0.225511 -0.735034 0.63943
vn -0.200663 -0.771879 0.603272
vn -0.134441 -0.842041 0.522391
vn -0.188609 -0.86239 0.469798
vn -0.176039 -0.852645 0.491942
vn -0.134441 -0.842041 0.522391
vn -0.173733 -0.807897 0.563133
vn -0.162029 -0.843343 0.512366
vn -0.256864 -0.848902 0.461937
vn -0.256647 -0.846903 0.465712
vn -0.244905 -0.869575 0.42879
vn -0.256864 -0.848902 0.461937
vn -0.27051 -0.809209 0.521542
vn -0.256647 -0.846903 0.465712
vn -0.346864 -0.838353 0.420535
vn -0.319902 -0.851624 0.41521
vn -0.286971 -0.859927 0.422105
vn -0.27051 -0.809209 0.521542
vn -0.270881 -0.808487 0.522467
vn -0.256647 -0.846903 0.465712
vn -0.273191 -0.782779 0.559127
vn -0.26758 -0.751482 0.603055
vn -0.284575 -0.790572 0.54223
vn -0.26758 -0.751482 0.603055
vn -0.274244 -0.699791 0.659608
vn -0.274054 -0.756422 0.593903
vn -0.247217 -0.730584 0.636499
vn -0.24996 -0.676837 0.692396
vn -0.246162 -0.682479 0.688205
vn -0.258902 -0.848 0.462456
vn -0.252621 -0.869122 0.425217
vn -0.256647 -0.846903 0.465712
vn -0.345013 -0.836844 0.425038
vn -0.346864 -0.838353 0.420535
vn -0.286971 -0.859927 0.422105
vn -0.174755 -0.802138 0.570995
vn -0.200663 -0.771879 0.603272
vn -0.222786 -0.797376 0.560855
vn -0.174755 -0.802138 0.570995
vn -0.212993 -0.764811 0.608028
vn -0.200663 -0.771879 0.603272
vn -0.222665 -0.769761 0.598237
vn -0.23518 -0.726648 0.645502
vn -0.247217 -0.730584 0.636499
vn -0.222665 -0.769761 0.598237
vn -0.200663 -0.771879 0.603272
vn -0.23518 -0.726648 0.645502
vn -0.311214 -0.793549 0.522901
vn -0.319579 -0.759768 0.566234
vn -0.340378 -0.760291 0.553264
vn -0.311214 -0.793549 0.522901
vn -0.284575 -0.790572 0.54223
vn -0.274054 -0.756422 0.593903
vn -0.248169 -0.87311 0.419632
vn -0.244905 -0.869575 0.42879
vn -0.252621 -0.869122 0.425217
vn -0.280744 -0.865443 0.41496
vn -0.281493 -0.861744 0.422088
vn -0.254086 -0.858402 0.44563
vn -0.325559 -0.783746 0.528918
vn -0.311214 -0.793549 0.522901
vn -0.340378 -0.760291 0.553264
vn -0.134441 -0.842041 0.522391
vn -0.11688 -0.822838 0.556127
vn -0.173733 -0.807897 0.563133
vn -0.135408 -0.828069 0.544028
vn -0.184197 -0.810642 0.555815
vn -0.168826 -0.81038 0.561055
vn -0.128925 -0.781613 0.610295
vn -0.222109 -0.781708 0.582752
vn -0.105946 -0.732648 0.672311
vn -0.128925 -0.781613 0.610295
vn -0.168826 -0.81038 0.561055
vn -0.222109 -0.781708 0.582752
vn -0.188609 -0.86239 0.469798
vn -0.162029 -0.843343 0.512366
vn -0.148638 -0.878225 0.454562
vn -0.188609 -0.86239 0.469798
vn -0.134441 -0.842041 0.522391
vn -0.162029 -0.843343 0.512366
vn -0.193291 -0.773543 0.603547
vn -0.18684 -0.778715 0.598911
vn -0.169871 -0.806363 0.566501
vn -0.169871 -0.806363 0.566501
vn -0.174755 -0.802138 0.570995
vn -0.156617 -0.848438 0.505592
vn -0.169871 -0.806363 0.566501
vn -0.18684 -0.778715 0.598911
vn -0.174755 -0.802138 0.570995
vn -0.247097 -0.85502 0.455944
vn -0.244645 -0.846145 0.473485
vn -0.254086 -0.858402 0.44563
vn -0.247097 -0.85502 0.455944
vn -0.21516 -0.840819 0.496718
vn -0.244645 -0.846145 0.473485
vn -0.21516 -0.840819 0.496718
vn -0.222786 -0.797376 0.560855
vn -0.244645 -0.846145 0.473485
vn -0.21516 -0.840819 0.496718
vn -0.174755 -0.802138 0.570995
vn -0.222786 -0.797376 0.560855
vn -0.284575 -0.790572 0.54223
vn -0.298465 -0.802592 0.516493
vn -0.273191 -0.782779 0.559127
vn -0.284575 -0.790572 0.54223
vn -0.313539 -0.805535 0.502799
vn -0.298465 -0.802592 0.516493
vn -0.184197 -0.810642 0.555815
vn -0.291315 -0.77018 0.567414
vn -0.222109 -0.781708 0.582752
vn -0.184197 -0.810642 0.555815
vn -0.526661 -0.66876 0.524775
vn -0.291315 -0.77018 0.567414
vn -0.311214 -0.793549 0.522901
vn -0.313539 -0.805535 0.502799
vn -0.284575 -0.790572 0.54223
vn -0.311214 -0.793549 0.522901
vn -0.315353 -0.811609 0.491775
vn -0.313539 -0.805535 0.502799
vn -0.315054 -0.829637 0.460916
vn -0.345013 -0.836844 0.425038
vn -0.286971 -0.859927 0.422105
vn -0.315054 -0.829637 0.460916
vn -0.313539 -0.805535 0.502799
vn -0.345013 -0.836844 0.425038
vn -0.390997 -0.670616 0.630393
vn -0.275557 -0.687414 0.67196
vn -0.222109 -0.781708 0.582752
vn -0.390997 -0.670616 0.630393
vn -0.472928 -0.528592 0.704933
vn -0.275557 -0.687414 0.67196
vn -0.27051 -0.809209 0.521542
vn -0.279397 -0.777659 0.56319
vn -0.270881 -0.808487 0.522467
vn -0.27051 -0.809209 0.521542
vn -0.222665 -0.769761 0.598237
vn -0.279397 -0.777659 0.56319
vn -0.274244 -0.699791 0.659608
vn -0.26758 -0.751482 0.603055
vn -0.246162 -0.682479 0.688205
vn -0.26758 -0.751482 0.603055
vn -0.247217 -0.730584 0.636499
vn -0.246162 -0.682479 0.688205
vn -0.26758 -0.751482 0.603055
vn -0.273191 -0.782779 0.559127
vn -0.247217 -0.730584 0.636499
vn -0.286971 -0.859927 0.422105
vn -0.252621 -0.869122 0.425217
vn -0.258902 -0.848 0.462456
vn -0.286971 -0.859927 0.422105
vn -0.252373 -0.870502 0.422533
vn -0.252621 -0.869122 0.425217
vn -0.186684 -0.838223 0.512378
vn -0.135408 -0.828069 0.544028
vn -0.176039 -0.852645 0.491942
vn -0.248169 -0.87311 0.419632
vn -0.252621 -0.869122 0.425217
vn -0.252373 -0.870502 0.422533
vn -0.189656 -0.870772 0.453638
vn -0.148638 -0.878225 0.454562
vn -0.156617 -0.848438 0.505592
vn -0.156617 -0.848438 0.505592
vn -0.162029 -0.843343 0.512366
vn -0.169871 -0.806363 0.566501
vn -0.156617 -0.848438 0.505592
vn -0.148638 -0.878225 0.454562
vn -0.162029 -0.843343 0.512366
vn -0.169871 -0.806363 0.566501
vn -0.173733 -0.807897 0.563133
vn -0.193291 -0.773543 0.603547
vn -0.169871 -0.806363 0.566501
vn -0.162029 -0.843343 0.512366
vn -0.173733 -0.807897 0.563133
vn -0.193291 -0.773543 0.603547
vn -0.173733 -0.807897 0.563133
vn -0.138907 -0.780853 0.609076
vn -0.248169 -0.87311 0.419632
vn -0.280744 -0.865443 0.41496
vn -0.244905 -0.869575 0.42879
vn -0.244905 -0.869575 0.42879
vn -0.254086 -0.858402 0.44563
vn -0.256864 -0.848902 0.461937
vn -0.244905 -0.869575 0.42879
vn -0.280744 -0.865443 0.41496
vn -0.254086 -0.858402 0.44563
vn -0.134441 -0.842041 0.522391
vn -0.135408 -0.828069 0.544028
vn -0.11688 -0.822838 0.556127
vn -0.134441 -0.842041 0.522391
vn -0.176039 -0.852645 0.491942
vn -0.135408 -0.828069 0.544028
vn -0.11688 -0.822838 0.556127
vn -0.168826 -0.81038 0.561055
vn -0.128925 -0.781613 0.610295
vn -0.11688 -0.822838 0.556127
vn -0.135408 -0.828069 0.544028
vn -0.168826 -0.81038 0.561055
vn -0.256864 -0.848902 0.461937
vn -0.244645 -0.846145 0.473485
vn -0.223069 -0.811725 0.539762
vn -0.256864 -0.848902 0.461937
vn -0.254086 -0.858402 0.44563
vn -0.244645 -0.846145 0.473485
vn -0.23518 -0.726648 0.645502
vn -0.200663 -0.771879 0.603272
vn -0.225511 -0.735034 0.63943
vn -0.223069 -0.811725 0.539762
vn -0.222786 -0.797376 0.560855
vn -0.200663 -0.771879 0.603272
vn -0.223069 -0.811725 0.539762
vn -0.244645 -0.846145 0.473485
vn -0.222786 -0.797376 0.560855
vn -0.315054 -0.829637 0.460916
vn -0.258902 -0.848 0.462456
vn -0.298465 -0.802592 0.516493
vn -0.315054 -0.829637 0.460916
vn -0.286971 -0.859927 0.422105
vn -0.258902 -0.848 0.462456
vn -0.298465 -0.802592 0.516493
vn -0.270881 -0.808487 0.522467
vn -0.273191 -0.782779 0.559127
vn -0.298465 -0.802592 0.516493
vn -0.258902 -0.848 0.462456
vn -0.270881 -0.808487 0.522467
vn -0.273191 -0.782779 0.559127
vn -0.279397 -0.777659 0.56319
vn -0.247217 -0.730584 0.636499
vn -0.273191 -0.782779 0.559127
vn -0.270881 -0.808487 0.522467
vn -0.279397 -0.777659 0.56319
vn -0.332239 -0.843994 0.421059
vn -0.346864 -0.838353 0.420535
vn -0.359364 -0.834224 0.418244
vn -0.332239 -0.843994 0.421059
vn -0.319902 -0.851624 0.41521
vn -0.346864 -0.838353 0.420535
vn -0.319579 -0.759768 0.566234
vn -0.274054 -0.756422 0.593903
vn -0.30238 -0.703324 0.643351
vn -0.319579 -0.759768 0.566234
vn -0.311214 -0.793549 0.522901
vn -0.274054 -0.756422 0.593903
vn -0.18684 -0.778715 0.598911
vn -0.212993 -0.764811 0.608028
vn -0.174755 -0.802138 0.570995
vn -0.18684 -0.778715 0.598911
vn -0.207313 -0.74363 0.635638
vn -0.212993 -0.764811 0.608028

f 1//1 2//2 3//3
f 4//4 5//5 6//6
f 7//7 8//8 9//9
f 10//10 11//11 12//12
f 13//13 14//14 15//15
f 16//16 17//17 18//18
f 19//19 20//20 21//21
f 22//22 23//23 24//24
f 25//25 26//26 27//27
f 28//28 29//29 30//30
f 31//31 32//32 33//33
f 34//34 35//35 36//36
f 37//37 38//38 39//39
f 40//40 41//41 42//42
f 43//43 44//44 45//45
f 46//46 47//47 48//48
f 49//49 50//50 51//51
f 52//52 53//53 54//54
f 55//55 56//56 57//57
f 58//58 59//59 60//60
f 61//61 62//62 63//63
f 64//64 65//65 66//66
f 67//67 68//68 69//69
f 70//70 71//71 72//72
f 73//73 74//74 75//75
f 76//76 77//77 78//78
f 79//79 80//80 81//81
f 82//82 83//83 84//84
f 85//85 86//86 87//87
f 88//88 89//89 90//90
f 91//91 92//92 93//93
f 94//94 95//95 96//96
f 97//97 98//98 99//99
f 100//100 101//101 102//102
f 103//103 104//104 105//105
f 106//106 107//107 108//108
f 109//109 110//110 111//111
f 112//112 113//113 114//114
f 115//115 116//116 117//117
f 118//118 119//119 120//120
f 121//121 122//122 123//123
f 124//124 125//125 126//126
f 127//127 128//128 129//129
f 130//130 131//131 132//132
f 133//133 134//134 135//135
f 136//136 137//137 138//138
f 139//139 140//140 141//141
f 142//142 143//143 144//144
f 145//145 146//146 147//147
f 148//148 149//149 150//150
f 151//151 152//152 153//153
f 154//154 155//155 156//156
f 157//157 158//158 159//159
f 160//160 161//161 162//162
f 163//163 164//164 165//165
f 166//166 167//167 168//168
f 169//169 170//170 171//171
f 172//172 173//173 174//174
f 175//175 176//176 177//177
f 178//178 179//179 180//180
f 181//181 182//182 183//183
f 184//184 185//185 186//186
f 187//187 188//188 189//189
f 190//190 191//191 192//192
f 193//193 194//194 195//195
f 196//196 197//197 198//198
f 199//199 200//200 201//201
f 202//202 203//203 204//204
f 205//205 206//206 207//207
f 208//208 209//209 210//210
f 211//211 212//212 213//213
f 214//214 215//215 216//216
f 217//217 218//218 219//219
f 220//220 221//221 222//222
f 223//223 224//224 225//225
f 226//226 227//227 228//228
f 229//229 230//230 231//231
f 232//232 233//233 234//234
f 235//235 236//236 237//237
f 238//238 239//239 240//240
f 241//241 242//242 243//243
f 244//244 245//245 246//246
f 247//247 248//248 249//249
f 250//250 251//251 252//252
f 253//253 254//254 255//255
f 256//256 257//257 258//258
f 259//259 260//260 261//261
f 262//262 263//263 264//264
f 265//265 266//266 267//267
f 268//268 269//269 270//270
f 271//271 272//272 273//273
f 274//274 275//275 276//276
f 277//277 278//278 279//279
f 280//280 281//281 282//282
f 283//283 284//284 285//285
f 286//286 287//287 288//288
f 289//289 290//290 291//291
f 292//292 293//293 294//294
f 295//295 296//296 297//297
f 298//298 299//299 300//300
f 301//301 302//302 303//303
f 304//304 305//305 306//306
f 307//307 308//308 309//309
f 310//310 311//311 312//312
f 313//313 314//314 315//315
f 316//316 317//317 318//318
f 319//319 320//320 321//321
f 322//322 323//323 324//324
f 325//325 326//326 327//327
f 328//328 329//329 330//330
f 331//331 332//332 333//333
f 334//334 335//335 336//336
f 337//337 338//338 339//339

