v 1.220182 0.246244 0.222104
v 1.21595 0.274672 0.202832
v 1.219652 0.274984 0.223056
v 1.220182 0.246244 0.222104
v 1.220046 0.24728 0.24314
v 1.21812 0.219296 0.223108
v 1.220046 0.24728 0.24314
v 1.220182 0.246244 0.222104
v 1.220078 0.274982 0.24309
v 1.218174 0.247122 0.202964
v 1.220182 0.246244 0.222104
v 1.21812 0.219296 0.223108
v 1.218174 0.247122 0.202964
v 1.21595 0.274672 0.202832
v 1.220182 0.246244 0.222104
v 1.219652 0.274984 0.223056
v 1.220078 0.274982 0.24309
v 1.220182 0.246244 0.222104

vn 0.997899 -0.0243651 -0.0600244
vn 0.97659 0.116694 -0.180708
vn 0.990943 0.0765363 -0.110337
vn 0.997899 -0.0243651 -0.0600244
vn 0.998203 -0.0371097 0.047049
vn 0.993013 -0.111341 -0.0390931
vn 0.998203 -0.0371097 0.047049
vn 0.997899 -0.0243651 -0.0600244
vn 0.999194 0.0332435 0.0224983
vn 0.991359 0.0175718 -0.129994
vn 0.997899 -0.0243651 -0.0600244
vn 0.993013 -0.111341 -0.0390931
vn 0.991359 0.0175718 -0.129994
vn 0.97659 0.116694 -0.180708
vn 0.997899 -0.0243651 -0.0600244
vn 0.990943 0.0765363 -0.110337
vn 0.999194 0.0332435 0.0224983
vn 0.997899 -0.0243651 -0.0600244

f 1//1 2//2 3//3
f 4//4 5//5 6//6
f 7//7 8//8 9//9
f 10//10 11//11 12//12
f 13//13 14//14 15//15
f 16//16 17//17 18//18

