v -0.975632 0.68182 -0.43212
v -0.995548 0.653518 -0.427506
v -0.99562 0.682064 -0.433244
v -0.866 -0.326194 -0.48612
v -0.846838 -0.328588 -0.480102
v -0.861484 -0.329822 -0.444624
v -0.864636 -0.269664 -0.527198
v -0.879796 -0.298146 -0.512614
v -0.875208 -0.26866 -0.505564
v -0.854508 -0.283376 -0.55185
v -0.835088 -0.320598 -0.559924
v -0.866036 -0.314536 -0.534254
v -0.90098 -0.265592 -0.444368
v -0.909804 -0.295934 -0.448376
v -0.916008 -0.293132 -0.42664
v -1.035502 0.653336 -0.431248
v -1.015636 0.68191 -0.434074
v -1.015468 0.653042 -0.429648
v -0.90098 -0.265592 -0.444368
v -0.88732 -0.267176 -0.465178
v -0.896972 -0.297262 -0.468256
v -0.99562 0.682064 -0.433244
v -0.975804 0.710442 -0.434128
v -0.975632 0.68182 -0.43212
v -0.886834 -0.29764 -0.487432
v -0.896972 -0.297262 -0.468256
v -0.88732 -0.267176 -0.465178
v -0.88051 -0.327448 -0.450518
v -0.895048 -0.32872 -0.415082
v -0.907978 -0.314922 -0.430292
v -0.846838 -0.328588 -0.480102
v -0.840618 -0.328966 -0.44125
v -0.861484 -0.329822 -0.444624
v -0.895564 -0.20952 -0.425806
v -0.899846 -0.23761 -0.445214
v -0.90762 -0.236648 -0.425336
v -0.872816 -0.18359 -0.446022
v -0.854984 -0.157124 -0.446126
v -0.846612 -0.18686 -0.465328
v -1.055642 0.681584 -0.431562
v -1.035598 0.681882 -0.433432
v -1.035502 0.653336 -0.431248
v -1.055642 0.681584 -0.431562
v -1.055748 0.709948 -0.430586
v -1.035598 0.681882 -0.433432
v -0.870426 -0.240536 -0.485736
v -0.85493 -0.213966 -0.485794
v -0.866164 -0.24086 -0.506478
v -0.880934 -0.239136 -0.461598
v -0.888152 -0.210278 -0.445992
v -0.863802 -0.21362 -0.46549
v -0.846838 -0.328588 -0.480102
v -0.866 -0.326194 -0.48612
v -0.832388 -0.327384 -0.515644
v -0.886834 -0.29764 -0.487432
v -0.896946 -0.320182 -0.460558
v -0.896972 -0.297262 -0.468256
v -0.849702 -0.32174 -0.524376
v -0.832388 -0.327384 -0.515644
v -0.866 -0.326194 -0.48612
v -0.866164 -0.24086 -0.506478
v -0.875208 -0.26866 -0.505564
v -0.870426 -0.240536 -0.485736
v -0.866164 -0.24086 -0.506478
v -0.864636 -0.269664 -0.527198
v -0.875208 -0.26866 -0.505564
v -0.909804 -0.295934 -0.448376
v -0.907978 -0.314922 -0.430292
v -0.916008 -0.293132 -0.42664
v -0.909804 -0.295934 -0.448376
v -0.896946 -0.320182 -0.460558
v -0.907978 -0.314922 -0.430292
v -0.91326 -0.264196 -0.425544
v -0.90762 -0.236648 -0.425336
v -0.90098 -0.265592 -0.444368
v -0.854214 -0.328612 -0.407064
v -0.861484 -0.329822 -0.444624
v -0.840618 -0.328966 -0.44125
v -0.875112 -0.329476 -0.410354
v -0.88051 -0.327448 -0.450518
v -0.861484 -0.329822 -0.444624
v -0.88051 -0.327448 -0.450518
v -0.866 -0.326194 -0.48612
v -0.861484 -0.329822 -0.444624
v -0.896946 -0.320182 -0.460558
v -0.879732 -0.31409 -0.500068
v -0.866 -0.326194 -0.48612
v -0.879732 -0.31409 -0.500068
v -0.849702 -0.32174 -0.524376
v -0.866 -0.326194 -0.48612
v -0.879796 -0.298146 -0.512614
v -0.864636 -0.269664 -0.527198
v -0.861066 -0.30914 -0.52675
v -0.846612 -0.18686 -0.465328
v -0.863802 -0.21362 -0.46549
v -0.872816 -0.18359 -0.446022
v -0.875112 -0.329476 -0.410354
v -0.861484 -0.329822 -0.444624
v -0.854214 -0.328612 -0.407064
v -0.854508 -0.283376 -0.55185
v -0.861066 -0.30914 -0.52675
v -0.864636 -0.269664 -0.527198
v -0.888152 -0.210278 -0.445992
v -0.872816 -0.18359 -0.446022
v -0.863802 -0.21362 -0.46549
v -1.015636 0.68191 -0.434074
v -0.99562 0.682064 -0.433244
v -1.015468 0.653042 -0.429648
v -1.035598 0.681882 -0.433432
v -1.055748 0.709948 -0.430586
v -1.03576 0.710022 -0.431388
v -0.880934 -0.239136 -0.461598
v -0.899846 -0.23761 -0.445214
v -0.888152 -0.210278 -0.445992
v -0.880934 -0.239136 -0.461598
v -0.88732 -0.267176 -0.465178
v -0.899846 -0.23761 -0.445214
v -0.879732 -0.31409 -0.500068
v -0.879796 -0.298146 -0.512614
v -0.866036 -0.314536 -0.534254
v -0.886834 -0.29764 -0.487432
v -0.875208 -0.26866 -0.505564
v -0.879796 -0.298146 -0.512614
v -0.85493 -0.213966 -0.485794
v -0.848156 -0.214252 -0.50651
v -0.866164 -0.24086 -0.506478
v -0.872816 -0.18359 -0.446022
v -0.883074 -0.182402 -0.426042
v -0.863244 -0.155748 -0.42637
v -0.872816 -0.18359 -0.446022
v -0.888152 -0.210278 -0.445992
v -0.883074 -0.182402 -0.426042
v -1.015468 0.653042 -0.429648
v -0.99562 0.682064 -0.433244
v -0.995548 0.653518 -0.427506
v -0.99562 0.682064 -0.433244
v -1.015776 0.710132 -0.431746
v -0.995746 0.71041 -0.433752
v -0.99562 0.682064 -0.433244
v -1.015636 0.68191 -0.434074
v -1.015776 0.710132 -0.431746
v -0.879732 -0.31409 -0.500068
v -0.886834 -0.29764 -0.487432
v -0.879796 -0.298146 -0.512614
v -0.879732 -0.31409 -0.500068
v -0.896946 -0.320182 -0.460558
v -0.886834 -0.29764 -0.487432
v -0.880264 -0.267992 -0.485584
v -0.88732 -0.267176 -0.465178
v -0.880934 -0.239136 -0.461598
v -0.880264 -0.267992 -0.485584
v -0.886834 -0.29764 -0.487432
v -0.88732 -0.267176 -0.465178
v -0.866164 -0.24086 -0.506478
v -0.85298 -0.242444 -0.526208
v -0.864636 -0.269664 -0.527198
v -0.866164 -0.24086 -0.506478
v -0.848156 -0.214252 -0.50651
v -0.85298 -0.242444 -0.526208
v -0.91326 -0.264196 -0.425544
v -0.90098 -0.265592 -0.444368
v -0.916008 -0.293132 -0.42664
v -0.864636 -0.269664 -0.527198
v -0.841782 -0.272348 -0.545166
v -0.854508 -0.283376 -0.55185
v -0.864636 -0.269664 -0.527198
v -0.85298 -0.242444 -0.526208
v -0.841782 -0.272348 -0.545166
v -0.90098 -0.265592 -0.444368
v -0.899846 -0.23761 -0.445214
v -0.88732 -0.267176 -0.465178
v -0.90098 -0.265592 -0.444368
v -0.90762 -0.236648 -0.425336
v -0.899846 -0.23761 -0.445214
v -0.866036 -0.314536 -0.534254
v -0.849702 -0.32174 -0.524376
v -0.879732 -0.31409 -0.500068
v -0.866036 -0.314536 -0.534254
v -0.835088 -0.320598 -0.559924
v -0.849702 -0.32174 -0.524376
v -0.896946 -0.320182 -0.460558
v -0.88051 -0.327448 -0.450518
v -0.907978 -0.314922 -0.430292
v -0.896946 -0.320182 -0.460558
v -0.866 -0.326194 -0.48612
v -0.88051 -0.327448 -0.450518
v -0.854984 -0.157124 -0.446126
v -0.872816 -0.18359 -0.446022
v -0.863244 -0.155748 -0.42637
v -0.895048 -0.32872 -0.415082
v -0.88051 -0.327448 -0.450518
v -0.875112 -0.329476 -0.410354
v -0.863802 -0.21362 -0.46549
v -0.85493 -0.213966 -0.485794
v -0.870426 -0.240536 -0.485736
v -0.863802 -0.21362 -0.46549
v -0.846612 -0.18686 -0.465328
v -0.85493 -0.213966 -0.485794
v -0.866036 -0.314536 -0.534254
v -0.861066 -0.30914 -0.52675
v -0.854508 -0.283376 -0.55185
v -0.866036 -0.314536 -0.534254
v -0.879796 -0.298146 -0.512614
v -0.861066 -0.30914 -0.52675
v -0.880934 -0.239136 -0.461598
v -0.870426 -0.240536 -0.485736
v -0.880264 -0.267992 -0.485584
v -0.880934 -0.239136 -0.461598
v -0.863802 -0.21362 -0.46549
v -0.870426 -0.240536 -0.485736
v -0.880264 -0.267992 -0.485584
v -0.875208 -0.26866 -0.505564
v -0.886834 -0.29764 -0.487432
v -0.880264 -0.267992 -0.485584
v -0.870426 -0.240536 -0.485736
v -0.875208 -0.26866 -0.505564
v -0.888152 -0.210278 -0.445992
v -0.895564 -0.20952 -0.425806
v -0.883074 -0.182402 -0.426042
v -0.888152 -0.210278 -0.445992
v -0.899846 -0.23761 -0.445214
v -0.895564 -0.20952 -0.425806
v -0.975804 0.710442 -0.434128
v -0.99562 0.682064 -0.433244
v -0.995746 0.71041 -0.433752
v -1.035598 0.681882 -0.433432
v -1.015636 0.68191 -0.434074
v -1.035502 0.653336 -0.431248
v -1.035598 0.681882 -0.433432
v -1.015776 0.710132 -0.431746
v -1.015636 0.68191 -0.434074
v -1.015776 0.710132 -0.431746
v -1.035598 0.681882 -0.433432
v -1.03576 0.710022 -0.431388
v -0.909804 -0.295934 -0.448376
v -0.896972 -0.297262 -0.468256
v -0.896946 -0.320182 -0.460558
v -0.909804 -0.295934 -0.448376
v -0.90098 -0.265592 -0.444368
v -0.896972 -0.297262 -0.468256

vn 0.0433486 -0.143419 -0.988712
vn 0.0982999 -0.256645 -0.961494
vn 0.0332584 -0.0928189 -0.995127
vn -0.271694 -0.943277 -0.190816
vn -0.0596051 -0.996975 -0.0498779
vn -0.0335884 -0.999127 -0.0248531
vn -0.775196 0.238496 -0.584971
vn -0.87875 1.17064E-4 -0.477282
vn -0.907244 0.26076 -0.330019
vn -0.620152 0.281795 -0.732122
vn -0.447222 -0.619514 -0.645131
vn -0.826155 -0.368058 -0.426616
vn -0.848241 0.155874 -0.506153
vn -0.918254 0.00322884 -0.395978
vn -0.954758 -0.0479141 -0.293498
vn 0.0258113 -0.165016 -0.985953
vn 0.0153293 -0.023347 -0.99961
vn 0.0896099 -0.228682 -0.969368
vn -0.848241 0.155874 -0.506153
vn -0.846593 0.23812 -0.476002
vn -0.860221 0.0717957 -0.504841
vn 0.0332584 -0.0928189 -0.995127
vn -0.0473631 -0.0741966 -0.996118
vn 0.0433486 -0.143419 -0.988712
vn -0.929516 0.0611143 -0.363682
vn -0.860221 0.0717957 -0.504841
vn -0.846593 0.23812 -0.476002
vn -0.249939 -0.964008 -0.0906612
vn -0.356509 -0.927204 -0.114865
vn -0.780953 -0.586086 -0.215906
vn -0.0596051 -0.996975 -0.0498779
vn 0.031983 -0.999383 0.0145089
vn -0.0335884 -0.999127 -0.0248531
vn -0.858303 0.394803 -0.32779
vn -0.821007 0.203334 -0.533482
vn -0.902473 0.253524 -0.348235
vn -0.671049 0.431672 -0.602787
vn -0.658727 0.454937 -0.599259
vn -0.637472 0.46907 -0.61123
vn -0.0533855 0.00945211 -0.998529
vn -0.0557271 -0.00608718 -0.998428
vn 0.0258113 -0.165016 -0.985953
vn -0.0533855 0.00945211 -0.998529
vn -0.0516289 -0.0312407 -0.998178
vn -0.0557271 -0.00608718 -0.998428
vn -0.867573 0.401101 -0.293999
vn -0.794885 0.521501 -0.310153
vn -0.840383 0.406668 -0.358297
vn -0.734542 0.312418 -0.602364
vn -0.741956 0.350971 -0.571245
vn -0.703974 0.415703 -0.575857
vn -0.0596051 -0.996975 -0.0498779
vn -0.271694 -0.943277 -0.190816
vn -0.13474 -0.983487 -0.120821
vn -0.929516 0.0611143 -0.363682
vn -0.69763 -0.655533 -0.289116
vn -0.860221 0.0717957 -0.504841
vn -0.290241 -0.94212 -0.16784
vn -0.13474 -0.983487 -0.120821
vn -0.271694 -0.943277 -0.190816
vn -0.840383 0.406668 -0.358297
vn -0.907244 0.26076 -0.330019
vn -0.867573 0.401101 -0.293999
vn -0.840383 0.406668 -0.358297
vn -0.775196 0.238496 -0.584971
vn -0.907244 0.26076 -0.330019
vn -0.918254 0.00322884 -0.395978
vn -0.780953 -0.586086 -0.215906
vn -0.954758 -0.0479141 -0.293498
vn -0.918254 0.00322884 -0.395978
vn -0.69763 -0.655533 -0.289116
vn -0.780953 -0.586086 -0.215906
vn -0.900026 0.137709 -0.413508
vn -0.902473 0.253524 -0.348235
vn -0.848241 0.155874 -0.506153
vn 0.0373872 -0.998996 0.0247004
vn -0.0335884 -0.999127 -0.0248531
vn 0.031983 -0.999383 0.0145089
vn -0.00396162 -0.999992 -7.78019E-4
vn -0.249939 -0.964008 -0.0906612
vn -0.0335884 -0.999127 -0.0248531
vn -0.249939 -0.964008 -0.0906612
vn -0.271694 -0.943277 -0.190816
vn -0.0335884 -0.999127 -0.0248531
vn -0.69763 -0.655533 -0.289116
vn -0.749905 -0.570574 -0.334795
vn -0.271694 -0.943277 -0.190816
vn -0.749905 -0.570574 -0.334795
vn -0.290241 -0.94212 -0.16784
vn -0.271694 -0.943277 -0.190816
vn -0.87875 1.17064E-4 -0.477282
vn -0.775196 0.238496 -0.584971
vn -0.701606 0.530082 -0.476195
vn -0.637472 0.46907 -0.61123
vn -0.703974 0.415703 -0.575857
vn -0.671049 0.431672 -0.602787
vn -0.00396162 -0.999992 -7.78019E-4
vn -0.0335884 -0.999127 -0.0248531
vn 0.0373872 -0.998996 0.0247004
vn -0.620152 0.281795 -0.732122
vn -0.701606 0.530082 -0.476195
vn -0.775196 0.238496 -0.584971
vn -0.741956 0.350971 -0.571245
vn -0.671049 0.431672 -0.602787
vn -0.703974 0.415703 -0.575857
vn 0.0153293 -0.023347 -0.99961
vn 0.0332584 -0.0928189 -0.995127
vn 0.0896099 -0.228682 -0.969368
vn -0.0557271 -0.00608718 -0.998428
vn -0.0516289 -0.0312407 -0.998178
vn -0.023819 0.0207033 -0.999502
vn -0.734542 0.312418 -0.602364
vn -0.821007 0.203334 -0.533482
vn -0.741956 0.350971 -0.571245
vn -0.734542 0.312418 -0.602364
vn -0.846593 0.23812 -0.476002
vn -0.821007 0.203334 -0.533482
vn -0.749905 -0.570574 -0.334795
vn -0.87875 1.17064E-4 -0.477282
vn -0.826155 -0.368058 -0.426616
vn -0.929516 0.0611143 -0.363682
vn -0.907244 0.26076 -0.330019
vn -0.87875 1.17064E-4 -0.477282
vn -0.794885 0.521501 -0.310153
vn -0.74177 0.541506 -0.395662
vn -0.840383 0.406668 -0.358297
vn -0.671049 0.431672 -0.602787
vn -0.81475 0.481588 -0.322886
vn -0.767182 0.549461 -0.330945
vn -0.671049 0.431672 -0.602787
vn -0.741956 0.350971 -0.571245
vn -0.81475 0.481588 -0.322886
vn 0.0896099 -0.228682 -0.969368
vn 0.0332584 -0.0928189 -0.995127
vn 0.0982999 -0.256645 -0.961494
vn 0.0332584 -0.0928189 -0.995127
vn -0.0464192 0.0220175 -0.998679
vn -0.0616774 -0.0177006 -0.997939
vn 0.0332584 -0.0928189 -0.995127
vn 0.0153293 -0.023347 -0.99961
vn -0.0464192 0.0220175 -0.998679
vn -0.749905 -0.570574 -0.334795
vn -0.929516 0.0611143 -0.363682
vn -0.87875 1.17064E-4 -0.477282
vn -0.749905 -0.570574 -0.334795
vn -0.69763 -0.655533 -0.289116
vn -0.929516 0.0611143 -0.363682
vn -0.918334 0.263151 -0.295659
vn -0.846593 0.23812 -0.476002
vn -0.734542 0.312418 -0.602364
vn -0.918334 0.263151 -0.295659
vn -0.929516 0.0611143 -0.363682
vn -0.846593 0.23812 -0.476002
vn -0.840383 0.406668 -0.358297
vn -0.683995 0.373463 -0.626638
vn -0.775196 0.238496 -0.584971
vn -0.840383 0.406668 -0.358297
vn -0.74177 0.541506 -0.395662
vn -0.683995 0.373463 -0.626638
vn -0.900026 0.137709 -0.413508
vn -0.848241 0.155874 -0.506153
vn -0.954758 -0.0479141 -0.293498
vn -0.775196 0.238496 -0.584971
vn -0.481434 0.522152 -0.703973
vn -0.620152 0.281795 -0.732122
vn -0.775196 0.238496 -0.584971
vn -0.683995 0.373463 -0.626638
vn -0.481434 0.522152 -0.703973
vn -0.848241 0.155874 -0.506153
vn -0.821007 0.203334 -0.533482
vn -0.846593 0.23812 -0.476002
vn -0.848241 0.155874 -0.506153
vn -0.902473 0.253524 -0.348235
vn -0.821007 0.203334 -0.533482
vn -0.826155 -0.368058 -0.426616
vn -0.290241 -0.94212 -0.16784
vn -0.749905 -0.570574 -0.334795
vn -0.826155 -0.368058 -0.426616
vn -0.447222 -0.619514 -0.645131
vn -0.290241 -0.94212 -0.16784
vn -0.69763 -0.655533 -0.289116
vn -0.249939 -0.964008 -0.0906612
vn -0.780953 -0.586086 -0.215906
vn -0.69763 -0.655533 -0.289116
vn -0.271694 -0.943277 -0.190816
vn -0.249939 -0.964008 -0.0906612
vn -0.658727 0.454937 -0.599259
vn -0.671049 0.431672 -0.602787
vn -0.767182 0.549461 -0.330945
vn -0.356509 -0.927204 -0.114865
vn -0.249939 -0.964008 -0.0906612
vn -0.00396162 -0.999992 -7.78019E-4
vn -0.703974 0.415703 -0.575857
vn -0.794885 0.521501 -0.310153
vn -0.867573 0.401101 -0.293999
vn -0.703974 0.415703 -0.575857
vn -0.637472 0.46907 -0.61123
vn -0.794885 0.521501 -0.310153
vn -0.826155 -0.368058 -0.426616
vn -0.701606 0.530082 -0.476195
vn -0.620152 0.281795 -0.732122
vn -0.826155 -0.368058 -0.426616
vn -0.87875 1.17064E-4 -0.477282
vn -0.701606 0.530082 -0.476195
vn -0.734542 0.312418 -0.602364
vn -0.867573 0.401101 -0.293999
vn -0.918334 0.263151 -0.295659
vn -0.734542 0.312418 -0.602364
vn -0.703974 0.415703 -0.575857
vn -0.867573 0.401101 -0.293999
vn -0.918334 0.263151 -0.295659
vn -0.907244 0.26076 -0.330019
vn -0.929516 0.0611143 -0.363682
vn -0.918334 0.263151 -0.295659
vn -0.867573 0.401101 -0.293999
vn -0.907244 0.26076 -0.330019
vn -0.741956 0.350971 -0.571245
vn -0.858303 0.394803 -0.32779
vn -0.81475 0.481588 -0.322886
vn -0.741956 0.350971 -0.571245
vn -0.821007 0.203334 -0.533482
vn -0.858303 0.394803 -0.32779
vn -0.0473631 -0.0741966 -0.996118
vn 0.0332584 -0.0928189 -0.995127
vn -0.0616774 -0.0177006 -0.997939
vn -0.0557271 -0.00608718 -0.998428
vn 0.0153293 -0.023347 -0.99961
vn 0.0258113 -0.165016 -0.985953
vn -0.0557271 -0.00608718 -0.998428
vn -0.0464192 0.0220175 -0.998679
vn 0.0153293 -0.023347 -0.99961
vn -0.0464192 0.0220175 -0.998679
vn -0.0557271 -0.00608718 -0.998428
vn -0.023819 0.0207033 -0.999502
vn -0.918254 0.00322884 -0.395978
vn -0.860221 0.0717957 -0.504841
vn -0.69763 -0.655533 -0.289116
vn -0.918254 0.00322884 -0.395978
vn -0.848241 0.155874 -0.506153
vn -0.860221 0.0717957 -0.504841

f 1//1 2//2 3//3
f 4//4 5//5 6//6
f 7//7 8//8 9//9
f 10//10 11//11 12//12
f 13//13 14//14 15//15
f 16//16 17//17 18//18
f 19//19 20//20 21//21
f 22//22 23//23 24//24
f 25//25 26//26 27//27
f 28//28 29//29 30//30
f 31//31 32//32 33//33
f 34//34 35//35 36//36
f 37//37 38//38 39//39
f 40//40 41//41 42//42
f 43//43 44//44 45//45
f 46//46 47//47 48//48
f 49//49 50//50 51//51
f 52//52 53//53 54//54
f 55//55 56//56 57//57
f 58//58 59//59 60//60
f 61//61 62//62 63//63
f 64//64 65//65 66//66
f 67//67 68//68 69//69
f 70//70 71//71 72//72
f 73//73 74//74 75//75
f 76//76 77//77 78//78
f 79//79 80//80 81//81
f 82//82 83//83 84//84
f 85//85 86//86 87//87
f 88//88 89//89 90//90
f 91//91 92//92 93//93
f 94//94 95//95 96//96
f 97//97 98//98 99//99
f 100//100 101//101 102//102
f 103//103 104//104 105//105
f 106//106 107//107 108//108
f 109//109 110//110 111//111
f 112//112 113//113 114//114
f 115//115 116//116 117//117
f 118//118 119//119 120//120
f 121//121 122//122 123//123
f 124//124 125//125 126//126
f 127//127 128//128 129//129
f 130//130 131//131 132//132
f 133//133 134//134 135//135
f 136//136 137//137 138//138
f 139//139 140//140 141//141
f 142//142 143//143 144//144
f 145//145 146//146 147//147
f 148//148 149//149 150//150
f 151//151 152//152 153//153
f 154//154 155//155 156//156
f 157//157 158//158 159//159
f 160//160 161//161 162//162
f 163//163 164//164 165//165
f 166//166 167//167 168//168
f 169//169 170//170 171//171
f 172//172 173//173 174//174
f 175//175 176//176 177//177
f 178//178 179//179 180//180
f 181//181 182//182 183//183
f 184//184 185//185 186//186
f 187//187 188//188 189//189
f 190//190 191//191 192//192
f 193//193 194//194 195//195
f 196//196 197//197 198//198
f 199//199 200//200 201//201
f 202//202 203//203 204//204
f 205//205 206//206 207//207
f 208//208 209//209 210//210
f 211//211 212//212 213//213
f 214//214 215//215 216//216
f 217//217 218//218 219//219
f 220//220 221//221 222//222
f 223//223 224//224 225//225
f 226//226 227//227 228//228
f 229//229 230//230 231//231
f 232//232 233//233 234//234
f 235//235 236//236 237//237
f 238//238 239//239 240//240

