v -1.10417 2.02384 0.568758
v -1.11906 2.02078 0.594318
v -1.109316 1.9918 0.572826
v -1.11924 1.96324 0.593044
v -1.109856 1.96266 0.572728
v -1.109316 1.9918 0.572826
v -1.109316 1.9918 0.572826
v -1.097062 1.99154 0.553826
v -1.10417 2.02384 0.568758
v -1.109316 1.9918 0.572826
v -1.109856 1.96266 0.572728
v -1.097062 1.99154 0.553826
v -1.109316 1.9918 0.572826
v -1.119344 1.99204 0.592906
v -1.11924 1.96324 0.593044
v -1.109316 1.9918 0.572826
v -1.11906 2.02078 0.594318
v -1.119344 1.99204 0.592906

vn 0.878598 0.0938062 0.468258
vn 0.874361 0.0473109 0.482965
vn 0.867444 -0.0349622 0.496306
vn 0.874179 0.186901 0.448196
vn 0.890634 0.148251 0.429876
vn 0.867444 -0.0349622 0.496306
vn 0.867444 -0.0349622 0.496306
vn 0.873964 -0.0280442 0.485181
vn 0.878598 0.0938062 0.468258
vn 0.867444 -0.0349622 0.496306
vn 0.890634 0.148251 0.429876
vn 0.873964 -0.0280442 0.485181
vn 0.867444 -0.0349622 0.496306
vn 0.888109 -0.0154026 0.459375
vn 0.874179 0.186901 0.448196
vn 0.867444 -0.0349622 0.496306
vn 0.874361 0.0473109 0.482965
vn 0.888109 -0.0154026 0.459375

f 1//1 2//2 3//3
f 4//4 5//5 6//6
f 7//7 8//8 9//9
f 10//10 11//11 12//12
f 13//13 14//14 15//15
f 16//16 17//17 18//18

